<svg width="54" height="54" viewBox="0 0 54 54" fill="none" xmlns="http://www.w3.org/2000/svg">
<path d="M21.7623 11.8116C21.3696 11.8116 20.9892 11.9485 20.6866 12.1987C20.384 12.449 20.1782 12.7969 20.1045 13.1826C19.6077 15.7196 17.8482 16.6238 15.5729 17.7274C14.4353 18.2792 13.2275 18.8023 12.1454 19.6587C11.0632 20.5151 10.1284 21.9274 10.1284 23.6202V48.9314C10.1267 49.3789 10.3028 49.8087 10.618 50.1264C10.9332 50.4441 11.3617 50.6236 11.8092 50.6254H42.1892C42.4111 50.6249 42.6307 50.5807 42.8354 50.4953C43.0402 50.4099 43.2261 50.2849 43.3825 50.1276C43.539 49.9702 43.6628 49.7836 43.747 49.5783C43.8313 49.3731 43.8742 49.1532 43.8733 48.9314V23.6202C43.8733 21.9274 42.9352 20.5151 41.853 19.6587C40.7709 18.8023 39.5664 18.2792 38.4288 17.7274C36.1535 16.6238 34.3907 15.7196 33.8939 13.1826C33.8203 12.7975 33.6149 12.45 33.313 12.1998C33.0111 11.9496 32.6315 11.8123 32.2394 11.8116H21.7623Z" fill="#CCCCCC"/>
<path d="M18.5621 3.37781C18.1157 3.37872 17.6879 3.55645 17.3723 3.87209C17.0566 4.18772 16.8789 4.61555 16.878 5.06192V13.5056C16.8798 13.9514 17.0579 14.3784 17.3734 14.6933C17.689 15.0082 18.1163 15.1855 18.5621 15.1864H35.4395C35.8848 15.1846 36.3112 15.007 36.6261 14.6921C36.9409 14.3773 37.1186 13.9508 37.1203 13.5056V5.06192C37.1194 4.61612 36.9422 4.18879 36.6272 3.87324C36.3123 3.5577 35.8853 3.37959 35.4395 3.37781H18.5621Z" fill="#AAAAAA"/>
<path d="M11.8092 23.6202C11.3617 23.622 10.9332 23.8014 10.618 24.1191C10.3028 24.4368 10.1267 24.8667 10.1284 25.3142V42.1916C10.1293 42.6374 10.3066 43.0647 10.6215 43.3803C10.9364 43.6958 11.3634 43.8739 11.8092 43.8757H42.1892C42.6356 43.8748 43.0634 43.6971 43.379 43.3814C43.6947 43.0658 43.8724 42.638 43.8733 42.1916V25.3142C43.8742 25.0923 43.8313 24.8725 43.747 24.6672C43.6628 24.4619 43.539 24.2753 43.3825 24.118C43.2261 23.9606 43.0402 23.8357 42.8354 23.7502C42.6307 23.6648 42.4111 23.6206 42.1892 23.6202H11.8092Z" fill="#2196F3"/>
<path d="M26.9704 28.6654C26.5249 28.6735 26.1007 28.8575 25.7903 29.1772C25.48 29.4969 25.3086 29.9264 25.3137 30.3719V37.1233C25.3137 37.571 25.4915 38.0003 25.8081 38.3168C26.1246 38.6333 26.5539 38.8112 27.0016 38.8112C27.4492 38.8112 27.8785 38.6333 28.195 38.3168C28.5116 38.0003 28.6894 37.571 28.6894 37.1233V30.3719C28.692 30.1461 28.6492 29.922 28.5635 29.7129C28.4779 29.5039 28.3512 29.3142 28.1909 29.1551C28.0306 28.9959 27.8399 28.8706 27.6303 28.7865C27.4207 28.7023 27.1963 28.6612 26.9704 28.6654Z" fill="white"/>
<path d="M23.4577 32.066C23.0103 32.0895 22.5906 32.2897 22.2907 32.6225C21.9909 32.9553 21.8354 33.3936 21.8585 33.841C21.8816 34.2884 22.0814 34.7083 22.414 35.0084C22.7465 35.3086 23.1846 35.4644 23.6321 35.4417H30.371C30.8186 35.4417 31.2479 35.2639 31.5645 34.9474C31.881 34.6308 32.0588 34.2015 32.0588 33.7539C32.0588 33.3062 31.881 32.8769 31.5645 32.5604C31.2479 32.2439 30.8186 32.066 30.371 32.066H23.6321C23.574 32.063 23.5158 32.063 23.4577 32.066Z" fill="white"/>
<path d="M23.6071 8.41125C23.3844 8.41364 23.1644 8.46011 22.9597 8.54796C22.755 8.63581 22.5697 8.76331 22.4146 8.92311C22.2594 9.08291 22.1374 9.27185 22.0556 9.47903C21.9738 9.68621 21.9338 9.90753 21.938 10.1302V11.8119C21.938 12.0335 21.9816 12.253 22.0665 12.4578C22.1513 12.6625 22.2756 12.8486 22.4323 13.0053C22.5891 13.1621 22.7751 13.2864 22.9799 13.3712C23.1847 13.456 23.4042 13.4997 23.6258 13.4997C23.8475 13.4997 24.067 13.456 24.2717 13.3712C24.4765 13.2864 24.6626 13.1621 24.8193 13.0053C24.976 12.8486 25.1004 12.6625 25.1852 12.4578C25.27 12.253 25.3137 12.0335 25.3137 11.8119V10.1302C25.3179 9.90439 25.2767 9.67999 25.1926 9.47035C25.1085 9.2607 24.9832 9.07008 24.824 8.90977C24.6649 8.74947 24.4752 8.62274 24.2661 8.53711C24.0571 8.45147 23.833 8.40867 23.6071 8.41125ZM30.3461 8.41125C30.1244 8.41527 29.9057 8.46293 29.7024 8.5515C29.4992 8.64008 29.3154 8.76784 29.1616 8.92748C29.0077 9.08711 28.8868 9.2755 28.8058 9.48188C28.7248 9.68825 28.6852 9.90857 28.6894 10.1302V11.8119C28.6894 12.2595 28.8672 12.6888 29.1837 13.0053C29.5003 13.3219 29.9296 13.4997 30.3772 13.4997C30.8249 13.4997 31.2542 13.3219 31.5707 13.0053C31.8872 12.6888 32.0651 12.2595 32.0651 11.8119V10.1302C32.0693 9.90332 32.0278 9.67788 31.9429 9.4674C31.858 9.25692 31.7316 9.06572 31.5711 8.90524C31.4106 8.74476 31.2194 8.61829 31.0089 8.53342C30.7984 8.44854 30.573 8.40699 30.3461 8.41125Z" fill="black"/>
<path d="M18.5582 3.37482C18.113 3.3766 17.6865 3.55425 17.3717 3.86908C17.0568 4.18391 16.8792 4.6104 16.8774 5.05564V13.5026C16.8792 13.9478 17.0568 14.3743 17.3717 14.6891C17.6865 15.004 18.113 15.1816 18.5582 15.1834H19.2404C18.4024 16.3149 17.1094 16.9854 15.5723 17.731C14.4347 18.2828 13.2236 18.7993 12.1414 19.6557C11.0593 20.5121 10.1245 21.931 10.1245 23.6238V48.9349C10.1245 49.3825 10.3023 49.8116 10.6187 50.1281C10.9352 50.4445 11.3643 50.6223 11.8119 50.6224H42.1853C42.6328 50.6223 43.062 50.4445 43.3784 50.1281C43.6949 49.8116 43.8727 49.3825 43.8727 48.9349V23.6238C43.8727 21.931 42.9379 20.5121 41.8557 19.6557C40.7735 18.7993 39.5625 18.2828 38.4249 17.731C36.8877 16.9854 35.5947 16.3149 34.7567 15.1834H35.4389C35.8842 15.1816 36.3107 15.004 36.6255 14.6891C36.9403 14.3743 37.118 13.9478 37.1198 13.5026V5.05564C37.118 4.6104 36.9403 4.18391 36.6255 3.86908C36.3107 3.55425 35.8842 3.3766 35.4389 3.37482H18.5582ZM20.2555 6.75294H33.7449V11.8086H32.0641V10.1278C32.0686 9.90061 32.0271 9.67491 31.9422 9.46417C31.8574 9.25343 31.7308 9.062 31.5701 8.90135C31.4095 8.7407 31.2181 8.61414 31.0073 8.52927C30.7966 8.44439 30.5709 8.40293 30.3437 8.40739C30.1219 8.41127 29.9029 8.45887 29.6995 8.54748C29.496 8.63608 29.312 8.76394 29.158 8.92374C29.004 9.08353 28.8831 9.27213 28.8021 9.47874C28.7211 9.68534 28.6816 9.90589 28.686 10.1278V11.8086H25.3112V10.1278C25.3156 9.90061 25.2742 9.67491 25.1893 9.46417C25.1044 9.25343 24.9779 9.062 24.8172 8.90135C24.6566 8.7407 24.4651 8.61414 24.2544 8.52927C24.0436 8.44439 23.8179 8.40293 23.5908 8.40739C23.3692 8.4117 23.1506 8.45962 22.9475 8.54841C22.7445 8.6372 22.5609 8.76513 22.4072 8.92488C22.2536 9.08464 22.1329 9.27309 22.0521 9.47948C21.9713 9.68588 21.932 9.90616 21.9363 10.1278V11.8086H20.2555V6.75294ZM22.902 15.1867H31.0952C32.2785 18.1762 34.8817 19.7623 36.9517 20.7664C38.1426 21.3441 39.1785 21.8397 39.7629 22.3022C40.3474 22.7647 40.4979 22.9714 40.4979 23.6238V23.6304H13.4993V23.6238C13.4993 22.9714 13.6498 22.7647 14.2342 22.3022C14.8187 21.8397 15.8545 21.3441 17.0455 20.7664C19.1154 19.7623 21.7186 18.1762 22.902 15.1867ZM13.5026 26.992H40.4946V40.4946H13.5026V26.992ZM13.4993 43.8694H40.4979V47.2475H13.4993V43.8694Z" fill="#263238"/>
</svg>
