<svg width="120" height="120" viewBox="0 0 120 120" fill="none" xmlns="http://www.w3.org/2000/svg">
<circle cx="60" cy="60" r="60" fill="#DEECFB"/>
<path d="M82.75 63.25H78.0277C78.8102 59.6523 78.2301 55.8961 76.3166 52.6802L73.4071 47.793C72.9488 47.0227 71.9527 46.7701 71.1792 47.2283L66.292 50.1371C64.4151 51.2542 62.8267 52.7809 61.625 54.5749V44.2781C63.5157 43.607 64.875 41.8057 64.875 39.6875C64.875 36.9989 62.6886 34.8125 60 34.8125H48.625C45.9364 34.8125 43.75 36.9989 43.75 39.6875C43.75 41.8057 45.1093 43.607 47 44.2781V56.2373L37.3702 69.9937C36.2287 71.6252 35.625 73.5403 35.625 75.5317C35.625 80.8561 39.9564 85.1875 45.2808 85.1875H69.75C77.8141 85.1875 84.375 78.6266 84.375 70.5625V64.875C84.375 63.978 83.647 63.25 82.75 63.25ZM67.9544 52.9304L71.4457 50.8521L73.5241 54.3426C75.1726 57.1132 75.5472 60.3998 74.6161 63.4629C72.7782 63.7741 71.0183 64.4297 69.4299 65.4023L71.3254 57.9338C71.5456 57.0636 71.0199 56.1796 70.1506 55.9586C69.2763 55.736 68.3964 56.2649 68.1754 57.1335L66.5999 63.3426L63.2126 58.5034C64.134 56.1853 65.8004 54.2126 67.9544 52.9304ZM48.625 38.0625H60C60.8962 38.0625 61.625 38.7913 61.625 39.6875C61.625 40.5837 60.8962 41.3125 60 41.3125H48.625C47.7288 41.3125 47 40.5837 47 39.6875C47 38.7913 47.7288 38.0625 48.625 38.0625ZM38.875 75.5317C38.875 74.2106 39.2756 72.9399 40.0336 71.8576L49.9567 57.6819C50.1476 57.4089 50.25 57.0831 50.25 56.75V44.5625H58.375V56.75C58.375 57.0831 58.4774 57.4089 58.6683 57.6811L68.5914 71.8576C69.3494 72.9399 69.75 74.2106 69.75 75.5317C69.75 79.0637 66.8762 81.9375 63.3443 81.9375H45.2808C41.7488 81.9375 38.875 79.0637 38.875 75.5317ZM81.125 70.5625C81.125 76.5522 76.4694 81.463 70.5877 81.8953C71.765 80.5563 72.5743 78.8931 72.8676 77.0552L77.3989 72.5239C78.0334 71.8893 78.0334 70.8607 77.3989 70.2261C76.7643 69.5916 75.7357 69.5916 75.1011 70.2261L72.5864 72.7408C72.2931 71.7682 71.8479 70.842 71.2547 69.9946L70.3456 68.6954C72.2858 67.2735 74.6339 66.5 77.0625 66.5H81.125V70.5625Z" fill="url(#paint0_linear_23_272)"/>
<path d="M67.3125 75.535C67.3125 74.7184 67.0663 73.9319 66.5959 73.2535L59.5028 63.1298C59.1989 62.6959 58.7016 62.4375 58.1719 62.4375H50.4531C49.9234 62.4375 49.4261 62.6959 49.1222 63.1306L42.0243 73.26C41.5587 73.9319 41.3125 74.7184 41.3125 75.535C41.3125 77.7206 43.0911 79.5 45.2775 79.5H63.3475C65.5339 79.5 67.3125 77.7214 67.3125 75.535ZM44.5625 75.535C44.5625 75.379 44.6064 75.2409 44.6901 75.1182L51.2989 65.6875H57.3261L63.9301 75.1125C64.0186 75.2409 64.0625 75.379 64.0625 75.535C64.0625 75.9291 63.7416 76.25 63.3475 76.25H45.2775C44.8834 76.25 44.5625 75.9291 44.5625 75.535Z" fill="url(#paint1_linear_23_272)"/>
<path d="M51.0788 71.375H51.0706C50.1736 71.375 49.4497 72.103 49.4497 73C49.4497 73.897 50.181 74.625 51.0788 74.625C51.9766 74.625 52.7038 73.897 52.7038 73C52.7038 72.103 51.9766 71.375 51.0788 71.375ZM55.9538 68.125H55.9456C55.0486 68.125 54.3247 68.853 54.3247 69.75C54.3247 70.647 55.056 71.375 55.9538 71.375C56.8516 71.375 57.5788 70.647 57.5788 69.75C57.5788 68.853 56.8516 68.125 55.9538 68.125Z" fill="url(#paint2_linear_23_272)"/>
<defs>
<linearGradient id="paint0_linear_23_272" x1="35.625" y1="60" x2="84.375" y2="60" gradientUnits="userSpaceOnUse">
<stop stop-color="#1666BA"/>
<stop offset="1" stop-color="#3DD0FF"/>
</linearGradient>
<linearGradient id="paint1_linear_23_272" x1="41.3125" y1="70.9688" x2="67.3125" y2="70.9688" gradientUnits="userSpaceOnUse">
<stop stop-color="#1666BA"/>
<stop offset="1" stop-color="#3DD0FF"/>
</linearGradient>
<linearGradient id="paint2_linear_23_272" x1="49.4497" y1="71.375" x2="57.5788" y2="71.375" gradientUnits="userSpaceOnUse">
<stop stop-color="#1666BA"/>
<stop offset="1" stop-color="#3DD0FF"/>
</linearGradient>
</defs>
</svg>
