<svg width="54" height="54" viewBox="0 0 54 54" fill="none" xmlns="http://www.w3.org/2000/svg">
<path fill-rule="evenodd" clip-rule="evenodd" d="M23.625 8.5455V19.8405C23.6246 21.6306 22.9132 23.3472 21.6473 24.6128L16.299 29.961C20.2524 29.6824 24.2082 30.4695 27.7538 32.2403C31.7321 34.2302 36.2894 34.7376 40.608 33.6713L41.2493 33.5115L32.3528 24.6128C31.0868 23.3472 30.3754 21.6306 30.375 19.8405V8.5455C28.1273 8.40243 25.8727 8.40243 23.625 8.5455ZM33.75 8.856C34.1821 8.85992 34.5991 8.69798 34.9153 8.40353C35.2315 8.10908 35.4227 7.70457 35.4496 7.27334C35.4764 6.84211 35.3368 6.41702 35.0595 6.08566C34.7823 5.75429 34.3885 5.5419 33.9593 5.49225C31.6507 5.20428 29.3264 5.06075 27 5.0625C24.6736 5.06198 22.3494 5.2055 20.0408 5.49225C19.6116 5.5419 19.2178 5.75429 18.9405 6.08566C18.6632 6.41702 18.5236 6.84211 18.5504 7.27334C18.5773 7.70457 18.7685 8.10908 19.0847 8.40353C19.4009 8.69798 19.818 8.85992 20.25 8.856V19.8405C20.2492 20.7353 19.8931 21.5932 19.26 22.2255L5.10076 36.387C1.45576 40.0343 3.06901 46.4558 8.41051 47.367C14.454 48.402 20.6663 48.9375 27 48.9375C33.336 48.9375 39.546 48.3998 45.5895 47.3693C50.9288 46.4558 52.5465 40.0343 48.897 36.387L34.74 22.2278C34.4262 21.9144 34.1773 21.5423 34.0075 21.1326C33.8376 20.723 33.7501 20.2839 33.75 19.8405V8.856Z" fill="url(#paint0_linear_34_1082)"/>
<defs>
<linearGradient id="paint0_linear_34_1082" x1="40.3417" y1="44.5324" x2="-2.09023" y2="37.0365" gradientUnits="userSpaceOnUse">
<stop stop-color="#2196F3"/>
<stop offset="1" stop-color="#71C0FF"/>
</linearGradient>
</defs>
</svg>
