<svg width="54" height="54" viewBox="0 0 54 54" fill="none" xmlns="http://www.w3.org/2000/svg">
<path d="M26.2013 47.0475L26.1855 47.0408L26.136 47.0138C25.8464 46.8544 25.5591 46.6909 25.2742 46.5233C21.8493 44.4881 18.6486 42.0974 15.7252 39.3908C10.548 34.56 5.0625 27.3915 5.0625 18.5625C5.0625 11.9745 10.6065 6.75001 17.298 6.75001C19.1582 6.7409 20.9965 7.15127 22.6762 7.95062C24.3559 8.74996 25.8338 9.91771 27 11.367C28.1664 9.91741 29.6447 8.74949 31.3248 7.95013C33.0049 7.15077 34.8437 6.74056 36.7042 6.75001C43.3935 6.75001 48.9375 11.9745 48.9375 18.5625C48.9375 27.3938 43.452 34.5623 38.2747 39.3885C35.3514 42.0952 32.1507 44.4859 28.7258 46.521C28.4409 46.6894 28.1536 46.8537 27.864 47.0138L27.8145 47.0408L27.7987 47.0498L27.792 47.052C27.548 47.1812 27.2761 47.2488 27 47.2488C26.7239 47.2488 26.452 47.1812 26.208 47.052L26.2013 47.0475Z" fill="url(#paint0_linear_34_1084)"/>
<defs>
<linearGradient id="paint0_linear_34_1084" x1="39.2651" y1="43.1827" x2="0.247841" y2="36.318" gradientUnits="userSpaceOnUse">
<stop stop-color="#2196F3"/>
<stop offset="1" stop-color="#71C0FF"/>
</linearGradient>
</defs>
</svg>
