<svg width="54" height="54" viewBox="0 0 54 54" fill="none" xmlns="http://www.w3.org/2000/svg">
<path d="M11.8147 40.4986C11.592 40.4978 11.3714 40.541 11.1655 40.6258C10.9595 40.7107 10.7725 40.8354 10.615 40.9929C10.4575 41.1504 10.3328 41.3374 10.2479 41.5434C10.1631 41.7493 10.1199 41.9699 10.1207 42.1926V48.9424C10.1212 49.1642 10.1654 49.3838 10.2508 49.5886C10.3362 49.7934 10.4611 49.9793 10.6185 50.1357C10.7758 50.2921 10.9625 50.416 11.1677 50.5002C11.373 50.5844 11.5929 50.6274 11.8147 50.6265H42.1819C42.4038 50.6274 42.6237 50.5844 42.8289 50.5002C43.0342 50.416 43.2208 50.2921 43.3782 50.1357C43.5355 49.9793 43.6605 49.7934 43.7459 49.5886C43.8313 49.3838 43.8755 49.1642 43.876 48.9424V42.1926C43.8768 41.9699 43.8336 41.7493 43.7487 41.5434C43.6639 41.3374 43.5392 41.1504 43.3817 40.9929C43.2242 40.8354 43.0371 40.7107 42.8312 40.6258C42.6253 40.541 42.4046 40.4978 42.1819 40.4986H11.8147Z" fill="#AAAAAA"/>
<path d="M37.1133 16.8685C36.7622 16.8722 36.4209 16.9853 36.1371 17.1922C35.8533 17.399 35.6411 17.6892 35.53 18.0224C35.4189 18.3555 35.4146 18.715 35.5175 19.0508C35.6205 19.3865 35.8256 19.6818 36.1044 19.8954C36.1044 19.8954 40.5015 23.3576 40.5015 29.5367C40.5015 35.6193 35.6408 40.4984 29.6145 40.4984C29.1669 40.4984 28.7376 40.6762 28.4211 40.9928C28.1045 41.3093 27.9267 41.7386 27.9267 42.1863C27.9267 42.6339 28.1045 43.0632 28.4211 43.3797C28.7376 43.6963 29.1669 43.8741 29.6145 43.8741C37.4764 43.8741 43.8772 37.4315 43.8772 29.5367C43.8772 21.7385 38.197 17.2422 38.197 17.2422C37.8905 16.995 37.5071 16.8628 37.1133 16.8685Z" fill="black"/>
<path d="M34.6775 3.37178C34.3752 3.36534 34.077 3.44091 33.8143 3.59053C33.5516 3.74016 33.334 3.95832 33.1845 4.22209L29.8393 10.0589C29.6196 10.4464 29.5614 10.9061 29.6774 11.3376C29.7935 11.7692 30.0744 12.1376 30.4589 12.3626L36.2726 15.7441C36.4637 15.8563 36.6749 15.9296 36.8939 15.9599C37.113 15.9901 37.3357 15.9767 37.5493 15.9204C37.7629 15.8641 37.9633 15.766 38.1389 15.6317C38.3146 15.4974 38.4621 15.3295 38.5731 15.1377L41.9183 9.30087C42.0295 9.10807 42.1017 8.89494 42.1305 8.67373C42.1594 8.45252 42.1445 8.22761 42.0866 8.01195C42.0287 7.7963 41.929 7.59415 41.7932 7.41715C41.6574 7.24015 41.4882 7.0918 41.2954 6.98065L35.4816 3.59589C35.2363 3.4546 34.9598 3.37753 34.6775 3.37178ZM27.9937 15.0487C27.6909 15.0404 27.3918 15.1144 27.1279 15.2629C26.8639 15.4114 26.645 15.6289 26.4941 15.8924L22.3151 23.1892C22.0914 23.5764 22.0299 24.0376 22.1443 24.4714C22.2586 24.9052 22.5393 25.2762 22.9248 25.5029L28.7418 28.8843C28.9338 28.9972 29.146 29.0707 29.3661 29.1008C29.5863 29.1309 29.81 29.1169 30.0245 29.0596C30.2389 29.0023 30.4398 28.9029 30.6157 28.767C30.7915 28.6312 30.9387 28.4616 31.0488 28.268L35.2279 20.9712C35.3373 20.7784 35.4078 20.5657 35.4354 20.3453C35.463 20.1249 35.4471 19.901 35.3886 19.6864C35.3302 19.4719 35.2303 19.2709 35.0947 19.0949C34.9591 18.919 34.7905 18.7715 34.5984 18.6608L28.7846 15.2794C28.7398 15.2509 28.6936 15.2245 28.6463 15.2003C28.4409 15.1064 28.2189 15.0548 27.9937 15.0487Z" fill="#AAAAAA"/>
<path d="M29.8788 8.36152C29.5765 8.35509 29.2784 8.43065 29.0156 8.58028C28.7529 8.72991 28.5354 8.94807 28.3859 9.21183L25.0407 15.0486C24.8209 15.4362 24.7627 15.8958 24.8788 16.3274C24.9949 16.7589 25.2758 17.1274 25.6602 17.3524L34.3808 22.4246C34.572 22.5368 34.7831 22.6101 35.0021 22.6403C35.2212 22.6706 35.4439 22.6572 35.6575 22.6009C35.8711 22.5446 36.0715 22.4464 36.2471 22.3121C36.4228 22.1778 36.5703 22.01 36.6813 21.8181L40.0265 15.9813C40.1377 15.7885 40.2099 15.5754 40.2388 15.3542C40.2676 15.133 40.2527 14.9081 40.1948 14.6924C40.1369 14.4768 40.0372 14.2746 39.9014 14.0976C39.7656 13.9206 39.5964 13.7723 39.4036 13.6611L30.683 8.58893C30.438 8.44649 30.1614 8.36828 29.8788 8.36152ZM15.0149 33.7587C14.5983 33.8005 14.212 33.9956 13.9312 34.3063C13.6504 34.6169 13.4952 35.0208 13.4956 35.4396V42.1926C13.4974 42.6401 13.6768 43.0686 13.9945 43.3838C14.3122 43.699 14.7421 43.8751 15.1896 43.8734H28.6792C29.1267 43.8751 29.5566 43.699 29.8743 43.3838C30.1919 43.0686 30.3714 42.6401 30.3732 42.1926V35.4396C30.3714 34.992 30.1919 34.5636 29.8743 34.2483C29.5566 33.9331 29.1267 33.757 28.6792 33.7587H15.1896C15.1314 33.7557 15.0731 33.7557 15.0149 33.7587Z" fill="#2196F3"/>
<path d="M34.6842 3.37151C34.382 3.36382 34.0836 3.43811 33.8203 3.58657C33.557 3.73503 33.3386 3.95219 33.188 4.21522L30.6799 8.59195C30.634 8.56331 30.5867 8.53692 30.5382 8.51285C30.1576 8.33948 29.7269 8.3143 29.3299 8.44219C28.9328 8.57008 28.5976 8.84193 28.3894 9.20495L25.0442 15.0417C24.9331 15.2337 24.8608 15.4461 24.8315 15.6665C24.8021 15.887 24.8163 16.1112 24.8733 16.3264C24.9302 16.5416 25.0288 16.7436 25.1633 16.9207C25.2978 17.0978 25.4657 17.2466 25.6572 17.3586L22.3187 23.1821C22.2074 23.374 22.1349 23.5861 22.1053 23.8065C22.0757 24.0268 22.0897 24.2509 22.1463 24.4661C22.2029 24.6813 22.3011 24.8833 22.4353 25.0605C22.5695 25.2378 22.7371 25.3868 22.9284 25.499L28.7453 28.8804C28.9374 28.9926 29.1495 29.0656 29.3694 29.0952C29.5893 29.1247 29.8127 29.1103 30.0268 29.0527C30.2409 28.9951 30.4414 28.8955 30.6169 28.7596C30.7923 28.6237 30.9392 28.4542 31.049 28.2608L34.3876 22.4373C34.5798 22.5482 34.7917 22.6199 35.0112 22.6485C35.2307 22.677 35.4535 22.6617 35.6668 22.6036C35.8802 22.5454 36.0799 22.4455 36.2546 22.3095C36.4292 22.1735 36.5754 22.0042 36.6847 21.8111L37.1758 20.9542C38.4727 22.4037 40.4946 25.3166 40.4946 29.533C40.4946 35.3568 36.0353 40.064 30.3668 40.455V35.4389C30.3685 34.9914 30.1924 34.5616 29.8772 34.2439C29.562 33.9262 29.1335 33.7467 28.686 33.7449H15.1834C14.7359 33.7467 14.3074 33.9262 13.9922 34.2439C13.677 34.5616 13.5009 34.9914 13.5026 35.4389V40.4946H11.8086C11.3611 40.4964 10.9326 40.6758 10.6174 40.9935C10.3022 41.3112 10.1261 41.7411 10.1278 42.1886V48.9415C10.1295 49.3868 10.3072 49.8133 10.622 50.1281C10.9369 50.4429 11.3633 50.6206 11.8086 50.6224H42.1886C42.6338 50.6206 43.0603 50.4429 43.3751 50.1281C43.69 49.8133 43.8676 49.3868 43.8694 48.9415V42.1886C43.8711 41.7411 43.695 41.3112 43.3798 40.9935C43.0646 40.6758 42.6361 40.4964 42.1886 40.4946H38.7808C41.8893 37.8607 43.8694 33.9226 43.8694 29.533C43.8694 23.3162 40.3834 19.3236 38.9225 17.909L40.0299 15.9777C40.2496 15.5902 40.3078 15.1305 40.1917 14.699C40.0757 14.2674 39.7948 13.899 39.4103 13.674L41.9216 9.29394C42.0311 9.10117 42.1016 8.88849 42.1292 8.66806C42.1567 8.44762 42.1408 8.22374 42.0824 8.0092C42.0239 7.79466 41.9241 7.59367 41.7885 7.4177C41.6529 7.24173 41.4842 7.09423 41.2922 6.98363L35.4785 3.60221C35.4326 3.57246 35.3853 3.54497 35.3368 3.51982C35.1312 3.42703 34.9093 3.3766 34.6842 3.37151ZM35.2709 7.37253L38.1678 9.05664L36.4936 11.9734L33.5966 10.2892L35.2709 7.37253ZM30.4657 12.3754L36.2695 15.7503L34.6018 18.6571L28.7981 15.2823L30.4657 12.3754ZM28.5739 19.0559L31.4709 20.74L28.9694 25.1068L26.0725 23.4227L28.5739 19.0559ZM16.8774 37.1198H26.992V40.4946H16.8774V37.1198ZM13.5026 43.8694H15.1834H28.686H40.4946V47.2475H13.5026V43.8694Z" fill="#263238"/>
</svg>
