<svg width="54" height="54" viewBox="0 0 54 54" fill="none" xmlns="http://www.w3.org/2000/svg">
<path d="M21.9384 3.37178C21.4908 3.37357 21.0623 3.55304 20.7471 3.87072C20.4319 4.18841 20.2558 4.61828 20.2575 5.0658V24.936L10.802 44.7897V44.8161L10.7888 44.8292C10.268 45.8554 10.0227 46.8246 10.1659 47.7691C10.311 48.7258 10.9332 49.504 11.537 49.9113C12.7444 50.7259 13.9429 50.6199 13.9429 50.6199H40.0618C40.0618 50.6199 41.2654 50.7399 42.4677 49.9245C43.0689 49.5168 43.6743 48.734 43.8256 47.7921C43.9769 46.8503 43.7542 45.8811 43.2521 44.8292L33.7833 24.936V5.0658C33.7842 4.8431 33.741 4.62244 33.6561 4.41652C33.5713 4.21061 33.4465 4.02353 33.2891 3.86605C33.1316 3.70858 32.9445 3.58383 32.7386 3.499C32.5327 3.41417 32.312 3.37093 32.0893 3.37178H21.9384Z" fill="#CCCCCC"/>
<path d="M20.0573 3.39801C19.6097 3.42117 19.1896 3.62118 18.8894 3.95406C18.5893 4.28695 18.4337 4.72542 18.4568 5.17304C18.4799 5.62067 18.6799 6.04077 19.0127 6.34095C19.3456 6.64113 19.7841 6.79679 20.2317 6.7737H33.722C33.9437 6.7737 34.1632 6.73005 34.3679 6.64522C34.5727 6.5604 34.7588 6.43608 34.9155 6.27934C35.0722 6.12261 35.1966 5.93655 35.2814 5.73177C35.3662 5.52699 35.4099 5.30751 35.4099 5.08586C35.4099 4.8642 35.3662 4.64472 35.2814 4.43994C35.1966 4.23516 35.0722 4.0491 34.9155 3.89237C34.7588 3.73563 34.5727 3.61131 34.3679 3.52649C34.1632 3.44166 33.9437 3.39801 33.722 3.39801H20.2317C20.1736 3.395 20.1154 3.395 20.0573 3.39801Z" fill="#AAAAAA"/>
<path d="M21.8757 23.7528C21.5565 23.7545 21.2442 23.8468 20.9753 24.0189C20.7063 24.191 20.4917 24.4359 20.3564 24.7251L10.802 44.7897V44.8161L10.7888 44.8292C10.268 45.8554 10.0226 46.8246 10.1659 47.7691C10.3111 48.7259 10.9333 49.504 11.537 49.9113C12.7444 50.7259 13.9429 50.6199 13.9429 50.6199H40.0618C40.0618 50.6199 41.2655 50.74 42.4678 49.9245C43.0688 49.5167 43.6742 48.734 43.8256 47.7921C43.977 46.8503 43.7543 45.881 43.2521 44.8292L33.6713 24.7251C33.536 24.4359 33.3214 24.191 33.0524 24.0189C32.7835 23.8468 32.4712 23.7545 32.152 23.7528H21.8757Z" fill="#FF5757"/>
<path d="M28.6647 30.3912C27.7428 30.3912 26.9831 31.1634 26.9831 32.0853C26.9831 33.0071 27.7428 33.7669 28.6647 33.7669C29.5867 33.7669 30.3463 33.0071 30.3463 32.0853C30.3463 31.1634 29.5867 30.3912 28.6647 30.3912ZM32.0404 40.5183C31.1185 40.5183 30.3463 41.278 30.3463 42.1999C30.3463 43.1217 31.1185 43.894 32.0404 43.894C32.9624 43.894 33.722 43.1217 33.722 42.1999C33.722 41.278 32.9624 40.5183 32.0404 40.5183ZM21.9133 37.1426C20.9914 37.1426 20.2317 37.9023 20.2317 38.8242C20.2317 39.746 20.9914 40.5183 21.9133 40.5183C22.8353 40.5183 23.6074 39.746 23.6074 38.8242C23.6074 37.9023 22.8353 37.1426 21.9133 37.1426Z" fill="#AAAAAA"/>
<path d="M21.7979 3.36161C21.7704 3.36533 21.7429 3.36972 21.7156 3.3748H20.2555C20.1974 3.37178 20.1391 3.37178 20.0809 3.3748C19.6329 3.39796 19.2125 3.59813 18.9121 3.93127C18.6117 4.2644 18.456 4.70323 18.4791 5.15119C18.5023 5.59916 18.7025 6.01958 19.0356 6.31996C19.3688 6.62034 19.8076 6.77608 20.2555 6.75292H20.2786V24.9091V24.9124L10.8298 44.7691C10.8246 44.7791 10.8217 44.7888 10.8166 44.7988L10.8133 44.8054C10.2913 45.8328 10.0403 46.7996 10.1838 47.7452C10.329 48.702 10.9478 49.4834 11.5515 49.8907C12.7589 50.7053 13.964 50.6026 13.964 50.6026H40.0859C40.0859 50.6026 40.387 50.6304 40.8341 50.5597C40.8811 50.5525 40.9454 50.5298 40.9956 50.5202C41.4259 50.4377 41.9502 50.2789 42.4885 49.9138C42.7891 49.7099 43.0901 49.4108 43.3355 49.047V49.0437C43.4577 48.8627 43.568 48.6646 43.6552 48.4538V48.4505C43.7422 48.2395 43.8084 48.0157 43.8464 47.7814V47.7781C43.917 47.3359 43.8977 46.8873 43.8134 46.4269C43.8079 46.3971 43.8096 46.3678 43.8035 46.3379C43.7896 46.2696 43.7613 46.1991 43.7442 46.1303C43.7 45.951 43.6571 45.7732 43.5926 45.5898C43.5037 45.3376 43.3973 45.0798 43.2729 44.8186L43.2696 44.8153V44.812L33.8076 24.9124V6.74962C34.2514 6.73598 34.6721 6.54796 34.9782 6.2263C35.2844 5.90465 35.4515 5.47529 35.4433 5.03128C35.435 4.58727 35.2521 4.1644 34.9342 3.85432C34.6163 3.54425 34.189 3.37196 33.745 3.3748H32.2882C32.2303 3.36738 32.172 3.36298 32.1136 3.36161H21.9594C21.9056 3.35904 21.8517 3.35904 21.7979 3.36161ZM23.6534 6.75292H30.4295V23.7391H23.6534V6.75292ZM22.9712 27.1139H31.1117L36.8495 39.173L40.2211 46.2621L40.2244 46.2654V46.2687C40.3607 46.5556 40.4279 46.7569 40.4584 46.8916C40.4891 47.0277 40.4822 47.1001 40.4814 47.1355C40.3505 47.1693 40.1354 47.2211 40.1354 47.2211C40.1266 47.2211 40.1178 47.2211 40.109 47.2211H13.964C13.964 47.2211 13.7168 47.164 13.5652 47.1223C13.5655 47.0953 13.5619 47.0308 13.585 46.9212C13.5861 46.9159 13.5837 46.917 13.585 46.9114V46.9081C13.6162 46.7826 13.6837 46.5942 13.8289 46.3115C13.8368 46.2963 13.8445 46.2809 13.8519 46.2654V46.2621L15.6844 42.4127L22.9712 27.1139Z" fill="#263238"/>
</svg>
