<svg width="121" height="120" viewBox="0 0 121 120" fill="none" xmlns="http://www.w3.org/2000/svg">
<circle cx="60.6666" cy="60" r="60" fill="#DEECFB"/>
<path d="M83.2739 41.7708C82.7718 41.2687 82.0251 41.1704 81.4206 41.4629C78.8108 38.2762 74.9458 36.4197 70.75 36.4197C69.0381 36.4197 67.3351 36.7431 65.7483 37.3589C64.7294 35.816 62.9825 34.7947 61 34.7947C57.8646 34.7947 55.3125 37.3459 55.3125 40.4822C55.3125 41.5531 55.6156 42.5516 56.1323 43.408L46.7991 53.6398C46.4002 53.5504 45.9874 53.5001 45.5625 53.5001C42.4271 53.5001 39.875 56.0513 39.875 59.1876C39.875 61.7047 41.5203 63.8424 43.7912 64.5891L46.4368 73.8507C42.3076 74.231 39.0625 77.7109 39.0625 81.9376V83.5626C39.0625 84.4596 39.7905 85.1876 40.6875 85.1876H68.3125C69.2095 85.1876 69.9375 84.4596 69.9375 83.5626V81.9376C69.9375 77.4574 66.2926 73.8126 61.8125 73.8126H61V72.1876C61 71.2906 60.272 70.5626 59.375 70.5626C58.478 70.5626 57.75 71.2906 57.75 72.1876V73.8126H49.8054L47.1842 64.6362C49.5316 63.9358 51.25 61.7599 51.25 59.1876C51.25 57.6787 50.6553 56.3089 49.6924 55.2892L57.347 46.8977C57.0772 47.9856 56.9375 49.1069 56.9375 50.2322C56.9375 54.4279 58.7941 58.293 61.9807 60.9027C61.6882 61.5081 61.7865 62.2539 62.2886 62.7561C62.6063 63.0737 63.0215 63.2322 63.4375 63.2322C63.8535 63.2322 64.2687 63.0737 64.5864 62.7561L69.3362 58.0062C70.5428 59.2509 72.2117 59.9822 74 59.9822C77.5839 59.9822 80.5 57.0661 80.5 53.4822C80.5 51.6833 79.7671 50.0234 78.5216 48.8209L83.2739 44.0686C83.9084 43.434 83.9084 42.4054 83.2739 41.7708ZM61 38.0447C62.3439 38.0447 63.4375 39.1383 63.4375 40.4822C63.4375 41.8261 62.3439 42.9197 61 42.9197C59.6561 42.9197 58.5625 41.8261 58.5625 40.4822C58.5625 39.1383 59.6561 38.0447 61 38.0447ZM66.6875 81.9376H42.3125C42.3125 79.249 44.4989 77.0626 47.1875 77.0626H61.8125C64.5011 77.0626 66.6875 79.249 66.6875 81.9376ZM45.5625 61.6251C44.2186 61.6251 43.125 60.5314 43.125 59.1876C43.125 57.8437 44.2186 56.7501 45.5625 56.7501C46.9064 56.7501 48 57.8437 48 59.1876C48 60.5314 46.9064 61.6251 45.5625 61.6251ZM60.1875 50.2322C60.1875 48.8136 60.4751 47.4534 61.0146 46.1689C64.1387 46.1607 66.6786 43.6217 66.6875 40.4976C67.9688 39.963 69.3525 39.6697 70.7508 39.6697C74.0325 39.6697 77.0534 41.1541 79.0505 43.6964L64.2143 58.5319C61.6719 56.5347 60.1875 53.5147 60.1875 50.2322ZM77.25 53.4822C77.25 55.2746 75.7924 56.7322 74 56.7322C73.0892 56.7322 72.2393 56.3536 71.6332 55.7092L76.2271 51.1154C76.8714 51.7199 77.25 52.5657 77.25 53.4822Z" fill="url(#paint0_linear_23_279)"/>
<defs>
<linearGradient id="paint0_linear_23_279" x1="39.0625" y1="59.9911" x2="83.7498" y2="59.9911" gradientUnits="userSpaceOnUse">
<stop stop-color="#1666BA"/>
<stop offset="1" stop-color="#3DD0FF"/>
</linearGradient>
</defs>
</svg>
