<svg width="121" height="120" viewBox="0 0 121 120" fill="none" xmlns="http://www.w3.org/2000/svg">
<circle cx="60.3333" cy="60" r="60" fill="#DEECFB"/>
<g clip-path="url(#clip0_23_276)">
<path d="M64.0625 47.8125V44.5625C64.0625 42.7701 62.6049 41.3125 60.8125 41.3125H59.1875V38.875C59.1875 36.6349 57.3651 34.8125 55.125 34.8125H43.75C41.5099 34.8125 39.6875 36.6349 39.6875 38.875V41.3125H38.0625C36.2701 41.3125 34.8125 42.7701 34.8125 44.5625V47.8125C34.8125 49.6049 36.2701 51.0625 38.0625 51.0625V73.8125C38.0625 80.085 43.165 85.1875 49.4375 85.1875C55.71 85.1875 60.8125 80.085 60.8125 73.8125V51.0625C62.6049 51.0625 64.0625 49.6049 64.0625 47.8125ZM55.9375 38.875V41.3125H51.0625V38.0625H55.125C55.5727 38.0625 55.9375 38.4265 55.9375 38.875ZM42.9375 38.875C42.9375 38.4265 43.3023 38.0625 43.75 38.0625H47.8125V41.3125H42.9375V38.875ZM57.5625 73.8125C57.5625 78.2926 53.9176 81.9375 49.4375 81.9375C44.9574 81.9375 41.3125 78.2926 41.3125 73.8125V51.0625H57.5625V73.8125ZM59.1875 47.8125H39.6875H38.0625V44.5625H41.3125H57.5625H60.8125L60.8141 47.8125H59.1875Z" fill="url(#paint0_linear_23_276)"/>
<path d="M49.4375 79.5C52.5737 79.5 55.125 76.9479 55.125 73.8125V59.1867C55.125 58.756 54.9536 58.3417 54.6489 58.037C54.3442 57.7331 53.9306 57.5617 53.5 57.5617L52.3471 57.5625C51.3201 57.5625 50.3053 57.7274 49.3302 58.0524C48.6867 58.2661 48.0173 58.375 47.3388 58.375H45.375C44.478 58.375 43.75 59.103 43.75 60V73.8125C43.75 76.9479 46.3012 79.5 49.4375 79.5ZM47 61.625H47.3388C48.3666 61.625 49.3822 61.46 50.3573 61.135C50.8504 60.9709 51.3583 60.8685 51.875 60.8295V73.8125C51.875 75.1564 50.7814 76.25 49.4375 76.25C48.0936 76.25 47 75.1564 47 73.8125V61.625ZM85.0161 63.3353C84.6139 62.5317 83.6372 62.2067 82.8353 62.6081L80.3125 63.8707L77.0625 62.2457V57.755L79.4147 56.5794C80.2174 56.178 80.5424 55.2022 80.1419 54.3986C79.7397 53.595 78.7631 53.27 77.9611 53.6714L75.4375 54.9332L72.1875 53.3082V51.1194L73.9011 49.977C74.6478 49.4797 74.8493 48.4706 74.352 47.7239C73.8548 46.9772 72.8456 46.7741 72.0989 47.273L70.5625 48.2975L69.0261 47.273C68.281 46.7749 67.2711 46.9772 66.773 47.7239C66.2749 48.4706 66.4772 49.4797 67.2239 49.977L68.9375 51.1194V53.3074L64.9603 55.2956C64.4102 55.5719 64.0625 56.1341 64.0625 56.75V63.25C64.0625 63.8659 64.4102 64.4281 64.9603 64.7035L68.9375 66.6917V71.1824L65.6875 72.8074L64.7897 72.3581C63.9869 71.9575 63.0111 72.2817 62.6089 73.0853C62.2076 73.888 62.5334 74.8639 63.3361 75.266L64.9611 76.0785C65.4186 76.3069 65.9573 76.3069 66.4147 76.0785L70.5625 74.0042L73.8125 75.6292V78.6875C73.8125 79.5845 74.5405 80.3125 75.4375 80.3125C76.3345 80.3125 77.0625 79.5845 77.0625 78.6875V75.6292L81.0397 73.641C81.5898 73.3656 81.9375 72.8034 81.9375 72.1875V66.6917L84.2897 65.516C85.0916 65.1147 85.4174 64.1389 85.0161 63.3353ZM67.3125 57.7542L70.5625 56.1292L73.8125 57.7542V62.2449L70.5625 63.8699L67.3125 62.2449V57.7542ZM78.6875 71.1832L75.4375 72.8082L72.1875 71.1832V66.6925L75.4375 65.0675L78.6875 66.6925V71.1832Z" fill="url(#paint1_linear_23_276)"/>
</g>
<defs>
<linearGradient id="paint0_linear_23_276" x1="34.8125" y1="60" x2="64.0625" y2="60" gradientUnits="userSpaceOnUse">
<stop stop-color="#1666BA"/>
<stop offset="1" stop-color="#3DD0FF"/>
</linearGradient>
<linearGradient id="paint1_linear_23_276" x1="43.75" y1="63.656" x2="85.1879" y2="63.656" gradientUnits="userSpaceOnUse">
<stop stop-color="#1666BA"/>
<stop offset="1" stop-color="#3DD0FF"/>
</linearGradient>
<clipPath id="clip0_23_276">
<rect width="52" height="52" fill="white" transform="translate(34 34)"/>
</clipPath>
</defs>
</svg>
