<svg width="54" height="54" viewBox="0 0 54 54" fill="none" xmlns="http://www.w3.org/2000/svg">
<path d="M39.4421 5.06494C37.0127 5.06494 34.5666 6.00258 32.7154 7.85316L25.8042 14.7677C25.6466 14.9245 25.5215 15.1109 25.4362 15.3162C25.3508 15.5215 25.3069 15.7417 25.3069 15.964C25.3069 16.1864 25.3508 16.4065 25.4362 16.6119C25.5215 16.8172 25.6466 17.0036 25.8042 17.1604L36.8648 28.2078C37.181 28.5222 37.6087 28.6986 38.0546 28.6986C38.5004 28.6986 38.9282 28.5222 39.2444 28.2078L46.1556 21.2966C49.8584 17.595 49.8584 11.5547 46.1556 7.85316C44.3044 6.00258 41.8715 5.06494 39.4421 5.06494ZM15.9268 25.3174C15.4857 25.3236 15.0645 25.5022 14.7535 25.8151L7.84228 32.7296C4.13951 36.4312 4.13951 42.455 7.84228 46.1566C11.5451 49.8582 17.5797 49.8582 21.2824 46.1566L28.1937 39.2585C28.3513 39.1017 28.4764 38.9153 28.5617 38.71C28.6471 38.5047 28.691 38.2845 28.691 38.0622C28.691 37.8398 28.6471 37.6197 28.5617 37.4144C28.4764 37.2091 28.3513 37.0226 28.1937 36.8658L17.1331 25.8151C16.9751 25.6562 16.7871 25.5304 16.58 25.445C16.3729 25.3595 16.1508 25.3162 15.9268 25.3174Z" fill="#CCCCCC"/>
<path d="M14.5689 5.07812C12.1342 5.07812 9.69381 6.00224 7.84229 7.85316C4.13924 11.555 4.13924 17.5948 7.84229 21.2966L32.7155 46.1566C36.4185 49.8584 42.4525 49.8584 46.1556 46.1566C49.8586 42.4547 49.8586 36.4315 46.1556 32.7296L21.2824 7.85316C19.4309 6.00224 17.0037 5.07813 14.5689 5.07812Z" fill="#CCCCCC"/>
<path d="M15.1903 10.1465C14.2685 10.1465 13.4962 10.9063 13.4962 11.8281C13.4962 12.75 14.2685 13.5097 15.1903 13.5097C16.1121 13.5097 16.8719 12.75 16.8719 11.8281C16.8719 10.9063 16.1121 10.1465 15.1903 10.1465ZM11.8146 13.5097C10.8928 13.5097 10.1205 14.2819 10.1205 15.2038C10.1205 16.1257 10.8928 16.8854 11.8146 16.8854C12.7364 16.8854 13.4962 16.1257 13.4962 15.2038C13.4962 14.2819 12.7364 13.5097 11.8146 13.5097ZM38.8077 10.1465C39.7295 10.1465 40.5018 10.9063 40.5018 11.8281C40.5018 12.75 39.7295 13.5097 38.8077 13.5097C37.8859 13.5097 37.1261 12.75 37.1261 11.8281C37.1261 10.9063 37.8859 10.1465 38.8077 10.1465ZM42.1834 13.5097C43.1052 13.5097 43.8775 14.2819 43.8775 15.2038C43.8775 16.1257 43.1052 16.8854 42.1834 16.8854C41.2616 16.8854 40.5018 16.1257 40.5018 15.2038C40.5018 14.2819 41.2616 13.5097 42.1834 13.5097ZM38.8077 43.8785C39.7295 43.8785 40.5018 43.1188 40.5018 42.1969C40.5018 41.2751 39.7295 40.5028 38.8077 40.5028C37.8859 40.5028 37.1261 41.2751 37.1261 42.1969C37.1261 43.1188 37.8859 43.8785 38.8077 43.8785ZM42.1834 40.5028C43.1052 40.5028 43.8775 39.7431 43.8775 38.8212C43.8775 37.8994 43.1052 37.1272 42.1834 37.1272C41.2616 37.1272 40.5018 37.8994 40.5018 38.8212C40.5018 39.7431 41.2616 40.5028 42.1834 40.5028ZM15.1903 43.8785C14.2685 43.8785 13.4962 43.1188 13.4962 42.1969C13.4962 41.2751 14.2685 40.5028 15.1903 40.5028C16.1121 40.5028 16.8719 41.2751 16.8719 42.1969C16.8719 43.1188 16.1121 43.8785 15.1903 43.8785ZM11.8146 40.5028C10.8928 40.5028 10.1205 39.7431 10.1205 38.8212C10.1205 37.8994 10.8928 37.1272 11.8146 37.1272C12.7364 37.1272 13.4962 37.8994 13.4962 38.8212C13.4962 39.7431 12.7364 40.5028 11.8146 40.5028Z" fill="#AAAAAA"/>
<path d="M25.7877 19.3587C25.3487 19.364 24.929 19.5402 24.6177 19.8498L19.8422 24.622C19.684 24.7789 19.5584 24.9655 19.4727 25.1711C19.387 25.3767 19.3429 25.5973 19.3429 25.82C19.3429 26.0428 19.387 26.2633 19.4727 26.469C19.5584 26.6746 19.684 26.8612 19.8422 27.0181L26.994 34.1666C27.1509 34.3246 27.3375 34.45 27.5431 34.5356C27.7487 34.6212 27.9693 34.6653 28.192 34.6653C28.4147 34.6653 28.6353 34.6212 28.8409 34.5356C29.0465 34.45 29.2331 34.3246 29.39 34.1666L34.1656 29.3943C34.4808 29.0766 34.6568 28.6467 34.6549 28.1992C34.6531 27.7517 34.4735 27.3233 34.1556 27.0082L27.0039 19.8564C26.8448 19.6963 26.6551 19.5698 26.4462 19.4843C26.2374 19.3989 26.0134 19.3561 25.7877 19.3587Z" fill="#FF5757"/>
<path d="M39.4372 5.05573C37.0078 5.05573 34.5749 5.99666 32.7237 7.84724L27.0055 13.5654L21.2874 7.84724C19.4358 5.99632 16.9955 5.06891 14.5607 5.06891C12.1259 5.06891 9.68556 5.99632 7.83404 7.84724C4.13099 11.5491 4.13099 17.5855 7.83404 21.2874L13.5522 27.0055L7.83404 32.7237C4.13127 36.4253 4.13127 42.4623 7.83404 46.1638C11.5368 49.8654 17.5714 49.8654 21.2742 46.1638L26.9923 40.4457L32.7105 46.1638C36.4135 49.8657 42.4608 49.8657 46.1638 46.1638C49.8669 42.462 49.8669 36.4255 46.1638 32.7237L40.4457 27.0055L46.1506 21.2874C49.8534 17.5858 49.8534 11.5488 46.1506 7.84724C44.2995 5.99666 41.8666 5.05572 39.4372 5.05573ZM14.5607 8.4207C16.1227 8.4207 17.6869 9.02934 18.8979 10.24L25.7729 17.1116C25.7848 17.125 25.7969 17.1382 25.8091 17.1512L36.8598 28.2019C36.8824 28.2223 36.9055 28.2421 36.9291 28.2612L43.7711 35.1032C46.1931 37.5245 46.1931 41.3498 43.7711 43.7711C41.349 46.1924 37.5253 46.1924 35.1032 43.7711L28.1887 36.8599L17.1413 25.8092C17.1115 25.7806 17.0808 25.7531 17.049 25.7268L10.2268 18.9078C7.80471 16.4866 7.80471 12.6612 10.2268 10.24C11.4378 9.02933 12.9987 8.4207 14.5607 8.4207ZM39.4372 8.43391C41.0046 8.43391 42.5597 9.02902 43.7711 10.24C46.1934 12.6615 46.1934 16.4863 43.7711 18.9079L38.0529 24.6128L29.3917 15.9515L35.1032 10.24C36.3146 9.02899 37.8698 8.43391 39.4372 8.43391ZM25.7729 19.3594C25.3373 19.3672 24.9216 19.5432 24.6128 19.8504L19.8405 24.6227C19.526 24.9389 19.3495 25.3666 19.3495 25.8125C19.3495 26.2583 19.526 26.6861 19.8405 27.0022L27.0022 34.1607C27.3183 34.4738 27.7453 34.6495 28.1904 34.6495C28.6354 34.6495 29.0624 34.4738 29.3785 34.1607L34.154 29.3884C34.4685 29.0722 34.6451 28.6445 34.6451 28.1986C34.6451 27.7527 34.4685 27.325 34.154 27.0088L26.9923 19.8504C26.8323 19.6912 26.6419 19.5657 26.4324 19.4813C26.223 19.397 25.9987 19.3555 25.7729 19.3594ZM25.8125 23.4263L30.588 28.1986L28.1986 30.5847L23.423 25.8125L25.8125 23.4263ZM15.9449 29.3983L24.6062 38.0595L18.8979 43.7711C16.4756 46.1927 12.6491 46.1927 10.2268 43.7711C7.80444 41.3496 7.80444 37.5248 10.2268 35.1032L15.9449 29.3983Z" fill="#263238"/>
</svg>
